<svg id="cart-add" xmlns="http://www.w3.org/2000/svg" width="13.039" height="12.839" viewBox="0 0 13.039 12.839">
  <path id="Icon_ionic-md-cart" data-name="Icon ionic-md-cart" d="M7.187,13.831a1.3,1.3,0,1,0,1.3,1.3A1.308,1.308,0,0,0,7.187,13.831ZM3.375,3.6V4.9h1.3L7.026,9.658l-.981,1.6a1.3,1.3,0,0,0,1.242,1.923H14.91V11.925H7.446a.154.154,0,0,1-.163-.163.813.813,0,0,1,.069-.163L8,10.571h4.857A1.279,1.279,0,0,0,14,9.887l2.347-4.037a.762.762,0,0,0,.065-.326.627.627,0,0,0-.652-.62H6.113L5.494,3.6ZM13.606,13.831a1.3,1.3,0,1,0,1.3,1.3A1.308,1.308,0,0,0,13.606,13.831Z" transform="translate(-3.375 -3.6)" fill="#fff"/>
  <path id="Icon_ionic-md-add" data-name="Icon ionic-md-add" d="M10.314,8.769H8.769v1.544H8.294V8.769H6.75V8.294H8.294V6.75h.475V8.294h1.544Z" transform="translate(-1.046 -4.231)"/>
</svg>
