<svg xmlns="http://www.w3.org/2000/svg" width="8.941" height="8.302" viewBox="0 0 8.941 8.302">
  <path id="icon-start" d="M10.851,6.249H7.916L7.024,3.587a.323.323,0,0,0-.607,0L5.525,6.249H2.569a.32.32,0,0,0-.319.319.235.235,0,0,0,.006.054.307.307,0,0,0,.134.226L4.8,8.548,3.876,11.24a.32.32,0,0,0,.11.359.309.309,0,0,0,.18.078.391.391,0,0,0,.2-.072L6.72,9.927l2.355,1.678a.374.374,0,0,0,.2.072.287.287,0,0,0,.178-.078.316.316,0,0,0,.11-.359L8.636,8.548l2.393-1.716.058-.05a.305.305,0,0,0-.235-.533Z" transform="translate(-2.25 -3.375)" fill="#ff0"/>
</svg>
