<svg xmlns="http://www.w3.org/2000/svg" width="16.615" height="14.538" viewBox="0 0 16.615 14.538">
  <path id="Icon_awesome-th-list" data-name="Icon awesome-th-list" d="M4.846,8.221v2.6a.779.779,0,0,1-.779.779H.779A.779.779,0,0,1,0,10.817v-2.6a.779.779,0,0,1,.779-.779H4.067a.779.779,0,0,1,.779.779ZM0,13.413v2.6a.779.779,0,0,0,.779.779H4.067a.779.779,0,0,0,.779-.779v-2.6a.779.779,0,0,0-.779-.779H.779A.779.779,0,0,0,0,13.413ZM4.067,2.25H.779A.779.779,0,0,0,0,3.029v2.6A.779.779,0,0,0,.779,6.4H4.067a.779.779,0,0,0,.779-.779v-2.6A.779.779,0,0,0,4.067,2.25Zm2.6,14.538h9.173a.779.779,0,0,0,.779-.779v-2.6a.779.779,0,0,0-.779-.779H6.663a.779.779,0,0,0-.779.779v2.6A.779.779,0,0,0,6.663,16.788ZM5.885,3.029v2.6a.779.779,0,0,0,.779.779h9.173a.779.779,0,0,0,.779-.779v-2.6a.779.779,0,0,0-.779-.779H6.663A.779.779,0,0,0,5.885,3.029ZM6.663,11.6h9.173a.779.779,0,0,0,.779-.779v-2.6a.779.779,0,0,0-.779-.779H6.663a.779.779,0,0,0-.779.779v2.6A.779.779,0,0,0,6.663,11.6Z" transform="translate(0 -2.25)"/>
</svg>
